<svg data-v-0dd9719b="" version="1.0" xmlns="http://www.w3.org/2000/svg" xmlns:xlink="http://www.w3.org/1999/xlink" width="100%" height="100%" viewBox="0 0 340.000000 250.000000" preserveAspectRatio="xMidYMid meet" color-interpolation-filters="sRGB" style="margin: auto;"> <rect data-v-0dd9719b="" x="0" y="0" width="100%" height="100%" fill="#ffffff" fill-opacity="1" class="background"></rect> <rect data-v-0dd9719b="" x="0" y="0" width="100%" height="100%" fill="url(#watermark)" fill-opacity="1" class="watermarklayer"></rect> <g data-v-0dd9719b="" fill="#f8b20a" class="icon-text-wrapper icon-svg-group iconsvg" transform="translate(71.6500015258789,95.0703353881836)"><g class="iconsvg-imagesvg" transform="translate(0,0)"><g><rect fill="#f8b20a" fill-opacity="0" stroke-width="2" x="0" y="0" width="60" height="59.85933057315309" class="image-rect"></rect> <svg filter="url(#colors1962898036)" x="0" y="0" width="60" height="59.85933057315309" filtersec="colorsf7654668312" class="image-svg-svg primary" style="overflow: visible;"><svg xmlns="http://www.w3.org/2000/svg" viewBox="0 0 89.3 89.1"><path d="M23.1 69.7l-8.6 5c-2.7-2.7-5-5.7-6.9-8.9l73.8-42.6c1.9 3.2 3.3 6.7 4.3 10.3L23.1 69.7zm10.8 6.2l10.9-6.3 42.4-24.5v-.6c0-3.8-.5-7.6-1.5-11.1L23.1 69.7l10.8 6.2zm3.4-73.3c-4.8.8-9.3 2.5-13.4 4.8l20.6 11.9L23.8 7.4c-3.5 1.9-6.6 4.3-9.4 7.1l8.6 5 10.7-6.2L23 19.5 4.5 30.2c-1.6 4.4-2.4 9.1-2.5 14l53.6-31L2 44.2v.4c0 3.9.5 7.7 1.5 11.3l63-36.3-29.2-17zm37.6 12.1l-8.4 4.9-63 36.3c1 3.5 2.3 6.8 4.1 9.9l73.8-42.6c-1.8-3.1-4-6-6.5-8.5zm-60.5-.2c-2.6 2.6-4.8 5.5-6.6 8.6l4.4 2.5-4.4-2.5c-1.3 2.2-2.4 4.6-3.3 7.1l18.6-10.7-8.7-5zm60.5.2C67.2 6.8 56.5 2 44.6 2c-2.5 0-5 .2-7.4.6l29.2 16.9 8.5-4.8zM55.6 75.9l9.9 5.7c3.4-1.9 6.6-4.4 9.3-7.1l-8.4-4.9-10.8 6.3zm10.9-6.2l8.4 4.9c2.6-2.6 4.8-5.6 6.7-8.8l-4.2-2.4-10.9 6.3zm15.1-3.9c1.2-2.1 2.2-4.3 3.1-6.6l-7.2 4.2 4.1 2.4zM55.5 76l.2-.1-10.9-6.3-10.9 6.3 18.3 10.6c4.8-.9 9.3-2.5 13.4-4.8L55.7 76h-.2zm-10.7-6.3L55.7 76l10.9-6.3 10.9-6.3h-.1.1l7.2-4.2c1.6-4.4 2.5-9.1 2.6-14L44.8 69.7zm-11 6.3l.2-.1-10.9-6.3-8.6 5c7.7 7.7 18.4 12.5 30.2 12.5 2.6 0 5.1-.2 7.6-.7L33.9 75.9l-.1.1z" fill="none" stroke="#333" stroke-width="4" stroke-miterlimit="10"></path></svg></svg> <defs><filter id="colors1962898036"><feColorMatrix type="matrix" values="0 0 0 0 0.984375  0 0 0 0 0.33203125  0 0 0 0 0.02734375  0 0 0 1 0" class="icon-fecolormatrix"></feColorMatrix></filter> <filter id="colorsf7654668312"><feColorMatrix type="matrix" values="0 0 0 0 0.99609375  0 0 0 0 0.99609375  0 0 0 0 0.99609375  0 0 0 1 0" class="icon-fecolormatrix"></feColorMatrix></filter> <filter id="colorsb4024325118"><feColorMatrix type="matrix" values="0 0 0 0 0  0 0 0 0 0  0 0 0 0 0  0 0 0 1 0" class="icon-fecolormatrix"></feColorMatrix></filter></defs></g></g> <g transform="translate(67,7.284664154052734)"><g data-gra="path-name" fill-rule="" class="tp-name iconsvg-namesvg"><g transform="scale(1)"><g><path d="M22.97 0.67L22.97 0.67Q20.6 0.62 18.56 0.6 16.52 0.59 14.71 0.59L14.71 0.59Q11.16 0.59 8.77 0.66 6.39 0.73 4.89 0.79L4.89 0.79Q3.13 0.88 2.11 0.97L2.11 0.97Q2.31-1 2.48-2.99 2.64-4.98 2.75-6.91 2.87-8.85 2.96-10.63 3.05-12.42 3.11-14L3.11-14Q3.22-17.7 3.25-21.06L3.25-21.06Q3.22-24.58 3.11-28.27L3.11-28.27Q3.05-29.85 2.96-31.6 2.87-33.34 2.75-35.16 2.64-36.97 2.48-38.8 2.31-40.63 2.11-42.36L2.11-42.36Q5.77-42.22 8.66-42.14 11.54-42.07 13.8-42.07L13.8-42.07Q16.03-42.07 17.64-42.11 19.25-42.16 20.27-42.22L20.27-42.22Q21.47-42.28 22.27-42.36L22.27-42.36Q22.27-42.39 22.27-41.84 22.27-41.28 22.29-40.37 22.32-39.46 22.4-38.32 22.47-37.18 22.62-36.01L22.62-36.01Q19.22-36.33 16.67-36.43 14.12-36.53 12.3-36.53L12.3-36.53Q11.54-36.53 10.97-36.53 10.4-36.53 9.9-36.47L9.9-36.47Q9.84-33.22 9.81-30.37 9.79-27.51 9.79-24.96L9.79-24.96Q11.84-25.02 13.45-25.12 15.06-25.22 16.2-25.37L16.2-25.37Q17.52-25.52 18.54-25.69L18.54-25.69Q18.52-25.49 18.52-25.22L18.52-25.22Q18.49-24.99 18.49-24.67 18.49-24.35 18.49-23.94L18.49-23.94Q18.49-23 18.54-21.69 18.6-20.39 18.78-18.9L18.78-18.9Q15.62-19.31 13.33-19.41 11.04-19.51 9.79-19.51L9.79-19.51Q9.79-16.46 9.81-14.08 9.84-11.69 9.89-9.87 9.93-8.06 9.98-6.77 10.02-5.48 10.08-4.63L10.08-4.63Q13.07-4.69 15.41-4.92 17.75-5.16 19.37-5.41 20.98-5.65 21.83-5.86 22.68-6.06 22.68-6.12L22.68-6.12Q22.65-5.98 22.65-5.8L22.65-5.8Q22.62-5.65 22.62-5.42 22.62-5.19 22.62-4.86L22.62-4.86Q22.62-4.04 22.68-2.67 22.73-1.29 22.97 0.67ZM48.96-42.07L48.96-42.07Q47.43-36.56 46.32-31.11 45.21-25.66 44.41-20.24 43.62-14.82 43.07-9.43 42.51-4.04 42.07 1.32L42.07 1.32 31.03 0.59Q30.35-4.8 29.68-10.15 29-15.5 28.2-20.82 27.39-26.13 26.43-31.39 25.46-36.65 24.23-41.89L24.23-41.89Q24.81-41.89 25.4-41.85 25.99-41.81 26.51-41.81L26.51-41.81Q28.15-41.81 29.65-41.89 31.14-41.98 32.87-42.07L32.87-42.07Q33.08-37.85 33.43-33.33 33.78-28.8 34.25-24.18 34.72-19.57 35.3-14.97 35.89-10.37 36.59-6.06L36.59-6.06Q37.32-10.37 37.95-14.97 38.58-19.57 39.05-24.2 39.52-28.83 39.83-33.37 40.14-37.91 40.25-42.13L40.25-42.13Q41.48-41.98 42.63-41.94 43.77-41.89 44.88-41.89L44.88-41.89Q46.79-41.89 48.96-42.07ZM51.53-3.49L51.53-3.49Q51.53-5.74 51.43-8 51.33-10.25 51.21-12.52 51.09-14.79 50.99-17.09 50.89-19.39 50.89-21.77L50.89-21.77Q50.89-24.26 51.05-26.82 51.21-29.38 51.68-31.77 52.15-34.16 52.97-36.25 53.79-38.35 55.11-39.9 56.43-41.46 58.33-42.36 60.23-43.27 62.81-43.27L62.81-43.27Q65.27-43.27 67.09-42.5 68.91-41.72 70.18-40.37 71.46-39.02 72.26-37.21 73.07-35.39 73.52-33.28 73.97-31.17 74.15-28.89 74.33-26.6 74.33-24.35L74.33-24.35Q74.33-23.76 74.31-23.32 74.3-22.88 74.28-22.37 74.27-21.86 74.22-21.15 74.18-20.45 74.12-19.32 74.06-18.19 73.99-16.55 73.92-14.91 73.83-12.51 73.74-10.11 73.62-6.84 73.51-3.57 73.39 0.79L73.39 0.79 64.63 0.47Q65.13-2.87 65.52-6.23 65.92-9.58 66.18-12.48L66.18-12.48Q63.93-12.66 61.99-12.66L61.99-12.66Q61-12.66 60.12-12.63 59.24-12.6 58.56-12.54L58.56-12.54Q58.65-11.02 58.77-9.32 58.89-7.62 59.03-5.89 59.18-4.16 59.36-2.48 59.53-0.79 59.77 0.73L59.77 0.73 51.47 0.97Q51.53-0.12 51.53-1.25 51.53-2.37 51.53-3.49ZM58.21-18.72L58.21-18.72Q59.09-18.66 59.94-18.66 60.79-18.66 61.61-18.66L61.61-18.66Q64.75-18.66 66.65-18.84L66.65-18.84Q66.83-20.92 67.02-23.03 67.21-25.14 67.21-27.54L67.21-27.54Q67.21-32.61 66.17-35.26 65.13-37.91 63.11-37.91L63.11-37.91Q61.99-37.91 61.05-37.12 60.12-36.33 59.43-34.67 58.74-33.02 58.34-30.5 57.95-27.98 57.95-24.55L57.95-24.55Q57.95-23.35 58.02-21.99 58.1-20.63 58.21-18.72ZM96.47-42.77L104.27-43.01Q104.12-40.63 104.02-38.07 103.92-35.51 103.84-32.93 103.77-30.35 103.73-27.86 103.68-25.37 103.65-23.17 103.62-20.98 103.62-19.16 103.62-17.34 103.62-16.08L103.62-16.08Q103.62-14.44 103.62-12.45 103.62-10.46 103.65-8.35 103.68-6.24 103.73-4.12 103.77-1.99 103.86-0.12L103.86-0.12Q102.6-0.18 101.56-0.18 100.52-0.18 99.67-0.18L99.67-0.18Q98.14-0.18 97.15-0.15 96.15-0.12 95.57-0.06L95.57-0.06Q94.86 0 94.48 0.06L94.48 0.06Q94.39-0.56 94.12-1.86 93.84-3.16 93.41-4.95 92.99-6.74 92.43-8.91 91.88-11.07 91.25-13.42 90.62-15.76 89.94-18.18 89.27-20.6 88.61-22.9 87.95-25.2 87.32-27.26 86.69-29.33 86.16-30.97L86.16-30.97Q85.93-27.22 85.81-24.04 85.69-20.86 85.63-18.49L85.63-18.49Q85.55-15.73 85.55-13.45L85.55-13.45Q85.55-11.48 85.63-9.29L85.63-9.29Q85.69-7.41 85.85-5.01 86.02-2.61 86.34-0.12L86.34-0.12Q84.08-0.21 82.63-0.22 81.18-0.23 80.33-0.23L80.33-0.23 78.9-0.23Q79.04-5.48 79.13-9.14 79.22-12.8 79.26-15.28 79.31-17.75 79.32-19.25 79.34-20.74 79.34-21.67 79.34-22.59 79.32-23.14 79.31-23.7 79.31-24.29L79.31-24.29Q79.31-25.75 79.29-27.77 79.28-29.79 79.22-32.12 79.16-34.45 79.04-36.97 78.93-39.49 78.72-41.95L78.72-41.95Q81.71-41.95 83.64-42.01 85.58-42.07 86.72-42.13L86.72-42.13Q88.07-42.22 88.8-42.3L88.8-42.3Q88.95-41.37 89.4-39.38 89.85-37.38 90.48-34.76 91.11-32.14 91.9-29.09 92.7-26.04 93.53-22.95 94.37-19.86 95.21-16.95 96.06-14.03 96.83-11.69L96.83-11.69Q96.97-14.18 97.05-16.77 97.12-19.37 97.16-21.62 97.21-23.88 97.21-25.56 97.21-27.25 97.21-27.89L97.21-27.89Q97.18-30.56 97.09-33.22L97.09-33.22Q97.06-34.37 97-35.6 96.94-36.83 96.87-38.07 96.8-39.32 96.69-40.52 96.59-41.72 96.47-42.77L96.47-42.77ZM131.75-10.08L131.75-10.08Q131.46-6.77 130.24-4.58 129.02-2.4 127.27-1.1 125.51 0.21 123.38 0.73 121.26 1.26 119.15 1.26L119.15 1.26Q116.95 1.26 114.92 0.66 112.88 0.06 111.33-1.14 109.78-2.34 108.85-4.16 107.93-5.98 107.93-8.41L107.93-8.41Q107.93-10.28 108.5-11.54 109.07-12.8 109.92-13.56 110.77-14.33 111.74-14.63 112.71-14.94 113.53-14.94L113.53-14.94Q114.38-14.94 115.28-14.68 116.19-14.41 116.95-13.8 117.71-13.18 118.2-12.14 118.68-11.1 118.68-9.55L118.68-9.55Q118.68-9.52 118.64-9.01 118.59-8.5 118.3-7.84 118.01-7.18 117.41-6.55 116.81-5.92 115.66-5.65L115.66-5.65Q116.48-4.63 117.58-4.12 118.68-3.6 119.44-3.6L119.44-3.6Q120.21-3.6 121.19-3.87 122.17-4.13 123.03-4.76 123.9-5.39 124.5-6.43 125.1-7.47 125.1-9.05L125.1-9.05Q125.1-10.9 124.47-12.33 123.84-13.77 122.86-14.87 121.88-15.97 120.66-16.8 119.44-17.64 118.3-18.31L118.3-18.31Q117.54-18.75 116.48-19.35 115.43-19.95 114.29-20.79 113.14-21.62 112.03-22.69 110.92-23.76 110.02-25.12 109.13-26.48 108.59-28.15 108.05-29.82 108.05-31.85L108.05-31.85Q108.05-34.86 109.1-37.13 110.16-39.4 111.84-40.93 113.53-42.45 115.66-43.21 117.8-43.97 120-43.97L120-43.97Q122.2-43.97 124.19-43.37 126.18-42.77 127.69-41.65 129.2-40.52 130.09-38.95 130.99-37.38 130.99-35.45L130.99-35.45Q130.99-33.49 130.34-32.34 129.7-31.2 128.8-30.62 127.91-30.03 126.99-29.87 126.06-29.71 125.51-29.71L125.51-29.71Q124.8-29.71 124.04-29.97 123.28-30.23 122.65-30.76 122.02-31.29 121.61-32.05 121.2-32.81 121.2-33.84L121.2-33.84Q121.23-34.48 121.35-35.13L121.35-35.13Q121.46-35.68 121.7-36.33 121.93-36.97 122.4-37.56L122.4-37.56Q121.93-37.97 121.49-38.2 121.05-38.44 120.67-38.55L120.67-38.55Q120.23-38.67 119.82-38.7L119.82-38.7Q119-38.7 118.17-38.41 117.33-38.12 116.65-37.53 115.96-36.94 115.52-36.05 115.08-35.16 115.08-33.96L115.08-33.96Q115.08-32.55 115.52-31.42 115.96-30.29 116.89-29.24 117.83-28.18 119.28-27.1 120.73-26.02 122.75-24.73L122.75-24.73Q125.13-23.23 126.84-21.74 128.55-20.24 129.65-18.66 130.75-17.08 131.28-15.34 131.81-13.59 131.81-11.57L131.81-11.57Q131.81-11.22 131.81-10.85 131.81-10.49 131.75-10.08Z" transform="translate(-2.109999895095825, 43.970001220703125)"></path></g> <!----> <!----> <!----> <!----> <!----> <!----> <!----></g></g> <!----></g></g><defs v-gra="od"></defs></svg>